<svg xmlns="http://www.w3.org/2000/svg" viewBox="0 0 602.45 58.68"><defs><style>.cls-1,.cls-6{fill:none;}.cls-1,.cls-3,.cls-4{stroke:#fff;}.cls-1,.cls-3,.cls-4,.cls-5,.cls-6{stroke-miterlimit:10;}.cls-2,.cls-3{fill:#fff;}.cls-4,.cls-5{fill:#013155;}.cls-5,.cls-6{stroke:#013155;}</style></defs><g id="Lag_2" data-name="Lag 2"><g id="Ikoner"><path class="cls-1" d="M15,10a4.07,4.07,0,0,1-.67.82C12.42,12.73,3.53,21.62,1.75,30.51a84.64,84.64,0,0,0-1,21s14,2,19,1,18-8,24-16,6-13,4-16-11-13-15-15S22.9-2.35,15,10Z"/><path class="cls-2" d="M39.36,11.2A35.82,35.82,0,0,0,42,5.52a9.42,9.42,0,0,0,.54-2.81c0-.45,0-1.06,0-1.58V0H45s0,0,0,.05-.28.27-.68.41h-1c-.4-.14-.62-.27-.68-.41s0,0,0,0H45V1.13c0,.56,0,1,0,1.67A10.38,10.38,0,0,1,44,6.3a17.24,17.24,0,0,1-1.7,3,18.84,18.84,0,0,1-2.17,2.56Z"/><path class="cls-1" d="M15,10c6.3,6.53,29.4,25.52,29.4,25.52"/><line class="cls-1" x1="22.29" y1="3.08" x2="27.75" y2="21.51"/><line class="cls-1" x1="31.45" y1="4.79" x2="36.73" y2="29.15"/><line class="cls-1" x1="40.98" y1="12.61" x2="45.62" y2="33.82"/><line class="cls-1" x1="36.73" y1="8.89" x2="15.56" y2="9.25"/><line class="cls-1" x1="44.94" y1="16.97" x2="24.72" y2="18.92"/><line class="cls-1" x1="48.68" y1="26.96" x2="35.32" y2="27.96"/><path class="cls-2" d="M33.45,41.14A38.63,38.63,0,0,1,29,44.9a33.52,33.52,0,0,1-5,3,22.87,22.87,0,0,1-5.5,1.86,15.54,15.54,0,0,1-5.77-.07l.06-.35a14.8,14.8,0,0,0,5.55-.3,22,22,0,0,0,5.14-2.13,31.52,31.52,0,0,0,4.58-3.19,34.63,34.63,0,0,0,4-3.83Z"/><line class="cls-1" x1="165.75" y1="16.51" x2="165.75" y2="51.73"/><path class="cls-1" d="M165.75,32.42a17.9,17.9,0,0,1,4.13-4.51,23.81,23.81,0,0,1,6.6-3.6c2.47-.9,5.77-1.8,5.77-1.8s-2.47,6.3-6.6,9S165.75,32.42,165.75,32.42Z"/><path class="cls-1" d="M166.53,24.89a15.32,15.32,0,0,1,3.37-4,20.22,20.22,0,0,1,5.51-3.31c2.08-.86,4.86-1.74,4.86-1.74s-1.91,5.51-5.33,8S166.53,24.89,166.53,24.89Z"/><path class="cls-1" d="M166.58,2.2a12.23,12.23,0,0,1,.94,4.11,19,19,0,0,1-.48,5.42c-.43,1.89-1.16,4.32-1.16,4.32s-2.56-3.62-2.51-7.15S166.58,2.2,166.58,2.2Z"/><path class="cls-1" d="M165.84,40.65a20.43,20.43,0,0,1,5-5,29.94,29.94,0,0,1,8-4c3-1,7-2,7-2s-3,7-8,10S165.84,40.65,165.84,40.65Z"/><path class="cls-1" d="M164.84,40.65a20.43,20.43,0,0,0-5-5,29.94,29.94,0,0,0-8-4c-3-1-7-2-7-2s3,7,8,10S164.84,40.65,164.84,40.65Z"/><path class="cls-1" d="M166.34,17.74A12.17,12.17,0,0,1,169,14.43a17,17,0,0,1,4.38-2.85c1.67-.76,3.92-1.57,3.92-1.57s-1.35,4.43-4.07,6.52S166.34,17.74,166.34,17.74Z"/><path class="cls-1" d="M165.31,17.62a12.3,12.3,0,0,0-2.61-3.32,17,17,0,0,0-4.39-2.84c-1.67-.77-3.91-1.58-3.91-1.58s1.35,4.44,4.06,6.53S165.31,17.62,165.31,17.62Z"/><path class="cls-1" d="M165.71,25a15.36,15.36,0,0,0-3.37-4,20.52,20.52,0,0,0-5.51-3.32C154.75,16.84,152,16,152,16s1.91,5.51,5.33,8S165.71,25,165.71,25Z"/><path class="cls-1" d="M165.08,32.21A18,18,0,0,0,161,27.7a24.09,24.09,0,0,0-6.6-3.6c-2.48-.9-5.78-1.8-5.78-1.8s2.48,6.31,6.6,9S165.08,32.21,165.08,32.21Z"/><path class="cls-1" d="M300,44a10.83,10.83,0,0,1-.16,2.05c-.32,2-.51,6.77,5.16,7.3,7.16.68,14.16.57,14.16.57s4.6.93,4.15-9.07-1.66-24-1.66-24-4.11-7.71-4.15-10.33,2.89-6.66-1.12-7.59-14-.79-14-.79-3,1-.92,5a6.19,6.19,0,0,1-.89,7s-1.66,3-1.2,10C299.72,29.94,299.93,40.42,300,44Z"/><path class="cls-2" d="M305.57,16.44a2.83,2.83,0,0,0-2.1,2.08,9.73,9.73,0,0,0-.31,3.4c0,2.4.08,4.81.06,7.21h-.9c-.1-2.4-.14-4.8-.17-7.2a10.26,10.26,0,0,1,.44-3.73,3.49,3.49,0,0,1,3-2.47Z"/><path class="cls-1" d="M423.83,17.51a0,0,0,0,0,0,.06,35.13,35.13,0,0,1,5,10.94C430.32,34,440.52,50,444.83,56.59c2,3.06,4.72,1.36,5.92-2.08h0c2-6,9-19,9-19l2-3a4.38,4.38,0,0,0,3,1c2,0,6,1,9-2s3.34-14,3.34-14-.66-6.65,0-9.32-3.34,2.32-10.34,3.32-10,5-10,5a5,5,0,0,0-1,5,14.09,14.09,0,0,0,3,5l1,2s8-9,8-6c0,2.23-10,11-10,11l-10,12h0c-1,1-1,3.32-2,3-.45-.15-1.67-2.67-2-3-1-1-12-21-13-24a6.83,6.83,0,0,0-4-4Z"/><path class="cls-3" d="M588.14,4.87,578,20.82a53.1,53.1,0,0,0-3.29,11.39c-.65,5.12-2.42,9.09,1,14a18.62,18.62,0,0,0,8.75,6.55l4.29-.32Z"/><path class="cls-4" d="M588.16,52.49s6-.44,8.68-4.65,2.7-4.21,3.54-6.28,1.7-4.14,1.56-6.13-2.59-7.83-2.59-7.83l-8.17-15.44L587.67,5.4"/><line class="cls-5" x1="580.14" y1="39.05" x2="588.68" y2="46.97"/><line class="cls-6" x1="581.08" y1="25.16" x2="588.49" y2="32.21"/></g></g></svg>