<svg xmlns="http://www.w3.org/2000/svg" viewBox="0 0 418.46 268.54"><defs><style>.cls-1{fill:#fff;}.cls-2,.cls-4{fill:#013155;}.cls-3{fill:none;}.cls-3,.cls-4{stroke:#013155;stroke-miterlimit:10;stroke-width:5px;}.cls-5{fill:#91b7e9;}</style></defs><g id="Lag_2" data-name="Lag 2"><g id="Illustration"><path class="cls-1" d="M39.15,139.3,10.54,160.8s-13,17-2,31,57,41,57,41,74,27,131,26,141-11,168-32,49-43,47-57-16.35-23-29.17-30.5S305.62,106,301.08,105.37"/><path class="cls-2" d="M40.65,141.3,12,162.8l.49-.48h0c-3.86,6.83-5.82,15.46-3.14,21.59A16.5,16.5,0,0,0,12,188.13a22.7,22.7,0,0,0,1.89,1.93c.34.33.64.65,1,1l1.15,1a123.11,123.11,0,0,0,9.87,7.39c7,4.73,14.24,9.2,21.57,13.57,3.67,2.18,7.37,4.34,11.07,6.47s7.48,4.23,11.14,6.26L68.37,225c4.85,1.57,10,3.08,15.06,4.53q3.79,1.11,7.62,2.14c2.54.71,5.1,1.38,7.65,2,10.21,2.68,20.47,5.15,30.76,7.3,2.56.58,5.15,1,7.72,1.54s5.15,1,7.73,1.44l7.73,1.33c2.58.41,5.16.73,7.73,1.1l3.87.55,3.87.41c2.57.27,5.15.58,7.72.82,5.12.3,10.28.78,15.35.73,5,.14,10.37,0,15.63-.19s10.56-.39,15.85-.68c10.56-.56,21.12-1.38,31.64-2.4a519.76,519.76,0,0,0,62.38-9.48,196.77,196.77,0,0,0,29.38-8.79,65.31,65.31,0,0,0,12.56-6.52c.84-.54,2-1.45,3-2.22l3.13-2.4c2.07-1.61,4.13-3.24,6.16-4.89a208.25,208.25,0,0,0,22.73-21,66,66,0,0,0,8.66-11.5,21.32,21.32,0,0,0,2.29-5.54,8.49,8.49,0,0,0,.26-2.21c0-.17,0-.29,0-.5l-.13-.7a9.61,9.61,0,0,0-.27-1.4,24.07,24.07,0,0,0-6.55-10.7,75.68,75.68,0,0,0-11.51-9.27c-2.15-1.44-4.35-2.85-6.6-4.26-1.09-.65-2.09-1.24-3.19-1.86l-3.43-1.82c-4.69-2.39-9.47-4.72-14.3-7-9.64-4.56-19.35-9.07-29.12-13.42l-14.67-6.51c-2.45-1.08-4.9-2.11-7.36-3.15l-3.66-1.51-1.81-.71-.44-.17-.35-.11-.68-.25.62-5,1.26.26.63.14.52.14,2,.57c1.32.4,2.6.81,3.9,1.22,2.57.84,5.14,1.68,7.68,2.56q7.65,2.61,15.24,5.37c10.1,3.7,20.18,7.45,30.2,11.46,5,2,10,4.09,15,6.28l3.78,1.73c1.27.62,2.63,1.32,3.88,2,2.38,1.3,4.78,2.65,7.17,4.06a80,80,0,0,1,14,10.18,42.52,42.52,0,0,1,6.18,7.07,32.29,32.29,0,0,1,4.41,9,23.62,23.62,0,0,1,.63,2.51l.27,1.27c.08.45.12,1,.18,1.5a21.94,21.94,0,0,1-.29,5.79,34.38,34.38,0,0,1-3.29,9.48,78.89,78.89,0,0,1-9.93,14.67,160.51,160.51,0,0,1-11.49,12.31c-4,3.87-8.05,7.58-12.2,11.18-2.07,1.8-4.16,3.56-6.26,5.31l-3.17,2.61c-1.09.87-2,1.68-3.39,2.66a80.57,80.57,0,0,1-15.6,8.87c-10.54,4.68-21.23,7.8-31.92,10.52-5.35,1.36-10.71,2.53-16.08,3.65s-10.75,2.06-16.13,2.95q-16.15,2.67-32.36,4.44c-10.81,1.16-21.63,2.11-32.48,2.79-5.43.36-10.86.62-16.3.83s-10.81.38-16.52.25c-5.66.06-11.2-.43-16.78-.74-2.77-.25-5.52-.57-8.28-.85-1.37-.15-2.76-.28-4.13-.45l-4.09-.6c-10.95-1.47-21.71-3.64-32.37-6.09l-8-1.89-7.91-2.1c-2.65-.68-5.25-1.47-7.88-2.21s-5.23-1.5-7.83-2.32-5.21-1.61-7.79-2.47-5.18-1.69-7.75-2.58C73,244.44,68,242.59,62.71,240.56l-.88-.35-.47-.29c-3.78-2.37-7.39-4.78-11-7.23s-7.25-4.91-10.81-7.49c-7.15-5.09-14.18-10.39-21-16.14a123.91,123.91,0,0,1-9.93-9.37l-1.2-1.28c-.39-.44-.78-1-1.17-1.44a31.88,31.88,0,0,1-2.27-3,24.58,24.58,0,0,1-3.21-7.3,27,27,0,0,1,.78-15.09,38.13,38.13,0,0,1,3-6.48c.59-1,1.21-2,1.87-3s1.35-1.84,2.2-2.83h0l.2-.27L9,158.8l28.6-21.5Z"/><path class="cls-1" d="M265.26,129.48s36.28,9.32,47.28,13.32,12,9,12,9-5,8-31,23-67,12-90,10-71-19-81-25-9-10-9-10l5-6c5-6,49.24-17.05,49.24-17.05Z"/><path class="cls-2" d="M265.61,127c.25,0,.6.13.77.18l.49.13,1,.25,1.95.51,3.91,1,7.81,2.07q7.82,2.1,15.6,4.29c5.2,1.48,10.36,2.95,15.59,4.75a39.06,39.06,0,0,1,7.8,3.65,21.18,21.18,0,0,1,3.6,2.84,14.56,14.56,0,0,1,1.58,1.87,10.44,10.44,0,0,1,.69,1.14c.11.19.21.43.31.65a7.08,7.08,0,0,1,.3.92v0l.22,1-.55.84c-.3.48-.47.68-.69,1s-.42.52-.64.78c-.42.5-.85,1-1.29,1.44-.87.93-1.76,1.81-2.68,2.65-1.82,1.69-3.69,3.29-5.63,4.79-3.86,3-7.85,5.8-11.9,8.47-2,1.31-4.08,2.64-6.15,3.88-1.05.63-2,1.29-3.14,1.88l-3.32,1.8a31.92,31.92,0,0,1-3.4,1.61l-3.45,1.49-3.54,1.22c-1.18.4-2.35.84-3.55,1.13a137.93,137.93,0,0,1-29.07,4.82,257.76,257.76,0,0,1-29.15.09q-7.26-.37-14.45-1c-1.18-.08-2.43-.22-3.69-.37s-2.52-.25-3.73-.48l-3.67-.6c-1.22-.21-2.41-.47-3.61-.7-9.61-2-18.93-4.59-28.17-7.45-4.61-1.44-9.21-2.93-13.78-4.53s-9.12-3.24-13.61-5.09c-2.24-1-4.47-1.94-6.69-3-1.12-.5-2.22-1.11-3.33-1.7s-2.25-1.26-3.39-1.95a36.1,36.1,0,0,1-6.11-5.05,17.49,17.49,0,0,1-2.6-3.46,10.23,10.23,0,0,1-1-2.25,4,4,0,0,1-.16-.66,4.88,4.88,0,0,1-.11-.7,5,5,0,0,1,0-.79,2.48,2.48,0,0,1,0-.46,1.48,1.48,0,0,1,0-.26l0-.15,0-.22,0-.12.13-.54.37-.45,4.82-5.78a9.79,9.79,0,0,1,.88-.92,9,9,0,0,1,1-.77,9.13,9.13,0,0,1,.92-.61c.31-.2.61-.38.91-.54,1.2-.68,2.39-1.22,3.59-1.76,4.76-2.08,9.55-3.69,14.37-5.25s9.65-3,14.5-4.34,9.7-2.66,14.6-3.9l.33-.09h.35Zm-.69,5-97.21-2.71.67-.07c-9.65,2.46-19.31,5.13-28.78,8.15-4.72,1.53-9.45,3.13-13.88,5.06-1.09.49-2.19,1-3.16,1.55a6.66,6.66,0,0,0-.71.42,7.35,7.35,0,0,0-.65.42c-.16.14-.41.29-.51.4a5.4,5.4,0,0,0-.41.44l-4.82,5.78.51-1,0-.08,0-.11v0s0,0,0,0,0,0,0,0,0,.05.08.11l.1.16a.92.92,0,0,0,.13.19,8.35,8.35,0,0,0,.72.91,17.93,17.93,0,0,0,2.17,1.89,38,38,0,0,0,5.55,3.27c1,.45,1.9.91,3,1.33s2.11.86,3.2,1.28c2.15.88,4.38,1.67,6.57,2.51,4.42,1.61,8.84,3.31,13.31,4.85s9,3.06,13.49,4.49c9,2.85,18.16,5.4,27.29,7.38,1.14.23,2.28.5,3.42.71l3.41.6c1.14.22,2.26.32,3.38.47s2.24.29,3.45.38q7.11.66,14.19,1.12a261.17,261.17,0,0,0,28.24.43,137.85,137.85,0,0,0,27.58-3.88c1.13-.25,2.21-.62,3.31-1l3.28-1,3.19-1.25a27.09,27.09,0,0,0,3.13-1.35l3.05-1.5c1-.49,2.05-1.14,3.08-1.7,2.07-1.14,4.09-2.36,6.13-3.56,4-2.45,8-5,11.78-7.75,1.89-1.37,3.75-2.77,5.51-4.26.88-.74,1.74-1.5,2.54-2.27.41-.39.79-.79,1.16-1.18l.53-.58.38-.47-.33,1.82h0c.05.19,0,0,0,0s-.07-.16-.13-.26-.23-.38-.35-.59a8.59,8.59,0,0,0-1-1.19,16.51,16.51,0,0,0-2.73-2.15,33.53,33.53,0,0,0-6.79-3.16c-5-1.7-10.14-3.18-15.28-4.65s-10.35-2.87-15.53-4.27Z"/><path class="cls-1" d="M176.54,137.8s-23.09,3.18-19,8.09,30.16,13.91,38.6,14.91,59.65,0,59.65,0S278.54,155,279,150.88s-15-10.42-15-10.42Z"/><path class="cls-2" d="M176.78,142.27a2.58,2.58,0,0,0,.29,0c.06,0,0,0,0,0l-.1,0-.23,0-.45.08-.91.17-1.83.38c-1.21.25-2.42.53-3.61.83a48,48,0,0,0-6.7,2.11,12.16,12.16,0,0,0-1.3.64,2.25,2.25,0,0,0-.65.46s.11,0,.28-.29a2.17,2.17,0,0,0,.35-.63,3.54,3.54,0,0,0,.27-1.12,4.34,4.34,0,0,0-.11-1.2,4.15,4.15,0,0,0-.32-.8,1.76,1.76,0,0,0-.14-.23l-.09-.11h0l.12.06a.31.31,0,0,1,.09.07,1.09,1.09,0,0,0,.16.11l.56.35c.32.23.86.49,1.32.75l.72.38.79.37c.54.23,1,.49,1.61.72a133.86,133.86,0,0,0,14,4.92c2.39.71,4.8,1.38,7.2,2s4.81,1.17,7,1.5c.59.12,1,.13,1.52.2s1,0,1.52.08,1.16,0,1.74,0l1.84,0c2.5,0,5.05,0,7.6-.06l15.4-.17,15.46-.07c5.16,0,10.33.05,15.47.18l-1.55.21c3.41-.75,7-1.59,10.41-2.48,1.71-.44,3.41-.93,5-1.42a44.39,44.39,0,0,0,4.4-1.57l.67-.3c.06,0,.07,0,.1,0a.57.57,0,0,0-.08.13.26.26,0,0,1,0,.08l-.12.21a1,1,0,0,0-.09.21,3.28,3.28,0,0,1-.12.31,3,3,0,0,0-.17.91,2,2,0,0,0,0,.69,2.41,2.41,0,0,0,.12.48c.18.47.36.51.3.4a4.23,4.23,0,0,0-.95-1.3,18.69,18.69,0,0,0-1.76-1.6c-2.61-2.13-5.7-4.22-8.71-6.21h0l.88.18Zm-.48-8.94L264.12,138l.49,0,.38.16h0a56.51,56.51,0,0,1,5.63,1.58,44.4,44.4,0,0,1,5.56,2.22A28.77,28.77,0,0,1,279,143.5a13.26,13.26,0,0,1,3.08,2.53,8,8,0,0,1,1.62,2.83A8.67,8.67,0,0,1,284,150a10.56,10.56,0,0,1,0,1.38,8.18,8.18,0,0,1-.36,1.58,3,3,0,0,1-.26.62,9.5,9.5,0,0,1-.57,1l-.25.35c-.17.23-.35.45-.53.66s-.63.65-.93.92-.57.5-.84.71l-.79.58a40,40,0,0,1-5.64,3.24c-1.82.91-3.64,1.66-5.44,2.4-3.64,1.46-7.19,2.72-11,3.87l-.48.14-1.07.07c-5.19.32-10.36.53-15.54.68s-10.37.18-15.56.25-10.38,0-15.61-.15q-3.92-.12-7.9-.31l-2-.13c-.7,0-1.31-.07-2.13-.16s-1.53-.13-2.33-.29-1.63-.28-2.3-.46c-2.89-.66-5.44-1.47-8-2.31s-5.07-1.79-7.57-2.75a144.07,144.07,0,0,1-14.78-6.63c-.61-.3-1.24-.68-1.86-1l-.93-.53-.95-.6a21.79,21.79,0,0,1-2-1.32l-1-.77a7.67,7.67,0,0,1-.58-.52l-.6-.6-.58-.62-.15-.17-.23-.3c-.14-.21-.28-.43-.41-.65a6.29,6.29,0,0,1-.71-1.67,6.41,6.41,0,0,1-.22-2.15,6.59,6.59,0,0,1,.46-2.06,7.79,7.79,0,0,1,.82-1.49,8.65,8.65,0,0,1,1.62-1.67,13.09,13.09,0,0,1,2.63-1.58,23.22,23.22,0,0,1,2.26-.91,58.59,58.59,0,0,1,8.21-2.09c1.33-.25,2.66-.48,4-.68l2-.29,1-.13.5-.06Z"/><path class="cls-1" d="M150.54,24.8s-5,58-3,66,26,45,26,45,4,8,10,10,51,6,57,3,16-9,22-16,19-25,19-25a114.74,114.74,0,0,0,6-25c2-15,0-48-2-53s-19-16.92-27.5-18.46-46.5-8.54-62.5-4.54S155.54,17.8,150.54,24.8Z"/><path class="cls-2" d="M152.89,25.66H153s0,0,0,0l0,.23-.06.92-.11,1.84-.23,3.68-.43,7.36-.78,14.73c-.24,4.9-.47,9.81-.63,14.7s-.28,9.8-.19,14.59l0,1.79.11,1.72a11.32,11.32,0,0,0,.14,1.59l.1.67a2.45,2.45,0,0,0,.15.65c.19.45.28.83.51,1.33L152.3,93c.48,1,1.07,2.1,1.6,3.14,2.28,4.21,4.81,8.4,7.36,12.57s5.17,8.3,7.83,12.43,5.31,8.26,8,12.33l.23.41.38.66.46.74c.31.5.65,1,1,1.45a20.44,20.44,0,0,0,2.21,2.54,12.26,12.26,0,0,0,2.35,1.81l.57.3.55.2a3,3,0,0,0,.57.16c.28.06.51.12.82.17,2.4.45,5.11.77,7.74,1.07s5.32.54,8,.77c5.36.45,10.74.8,16.09,1.05s10.75.39,15.84.13a32,32,0,0,0,3.54-.34,6.16,6.16,0,0,0,.67-.13c.13,0,.42-.1.29-.08l0,0h0l.09,0,.42-.23.85-.44c2.27-1.22,4.5-2.54,6.66-3.95A60,60,0,0,0,258,130.3c.76-.84,1.6-1.88,2.42-2.9s1.64-2.08,2.45-3.14c1.63-2.12,3.25-4.28,4.86-6.44,3.23-4.32,6.43-8.71,9.57-13.09l-.61,1.12c.32-.84.7-2,1-3s.65-2.12,1-3.19c.6-2.14,1.14-4.32,1.63-6.51s.91-4.4,1.27-6.61.69-4.48.89-6.59c.4-4.35.48-8.94.48-13.5s-.16-9.18-.39-13.77-.55-9.18-1-13.67c-.12-1.11-.25-2.23-.4-3.31l-.24-1.59c-.08-.53-.19-.95-.28-1.43l-.06-.35-.06-.16a3.18,3.18,0,0,1-.08-.33c-.09,0,.05,0-.25-.3l-.29-.4-.45-.48c-.15-.16-.28-.32-.45-.49l-.53-.51a49.63,49.63,0,0,0-4.84-4c-1.74-1.29-3.55-2.53-5.41-3.67a61.44,61.44,0,0,0-5.63-3.11,24.25,24.25,0,0,0-5.27-2l-.31-.08-.43-.08-.86-.15-1.71-.3-3.43-.6-6.84-1.11c-4.57-.7-9.14-1.35-13.7-1.87a178.45,178.45,0,0,0-27-1.43l-3.13.26c-1,.11-1.94.31-2.92.45-2.21.49-4.5,1-6.73,1.54-4.5,1-9,2.12-13.41,3.33s-8.83,2.45-13.09,3.89c-1,.39-2.13.74-3.13,1.17l-1.55.6-1.48.67-.74.33-.69.37c-.44.25-.95.48-1.36.74l-1.23.8A1.53,1.53,0,0,1,152.89,25.66Zm-4.69-1.73a14.66,14.66,0,0,1,1.63-2.39l1.46-1.46c.5-.48,1-.85,1.51-1.27l.78-.61.78-.53a52.1,52.1,0,0,1,6.4-3.81A126.59,126.59,0,0,1,174,8.06q6.72-2.48,13.54-4.55c2.29-.67,4.52-1.35,6.86-2,1.33-.27,2.69-.6,4-.81S201,.39,202.26.27A110,110,0,0,1,217,.22c4.83.25,9.58.77,14.32,1.32s9.42,1.24,14.11,2q3.51.54,7,1.16l3.49.61,1.74.32.86.16.44.07.55.13a34.4,34.4,0,0,1,7.87,2.87A73.12,73.12,0,0,1,274,12.52c2.13,1.31,4.18,2.72,6.2,4.22a59.44,59.44,0,0,1,5.92,5l.73.71c.25.25.49.53.74.8l.73.82c.26.31.52.66.77,1a14.42,14.42,0,0,1,1.56,2.69c.15.45.29.9.43,1.36l.19.68.1.51a75,75,0,0,1,1.1,7.56c.5,4.82.81,9.57,1,14.33s.29,9.51.27,14.3-.16,9.57-.66,14.54c-.26,2.55-.62,4.91-1,7.32s-.9,4.79-1.45,7.16-1.16,4.74-1.84,7.09c-.35,1.17-.71,2.35-1.1,3.52s-.77,2.29-1.29,3.63l-.24.6-.38.53c-3.24,4.43-6.49,8.8-9.81,13.17-1.66,2.18-3.33,4.36-5.05,6.52-.86,1.09-1.72,2.17-2.62,3.26s-1.79,2.15-2.86,3.32a70.08,70.08,0,0,1-13.73,11c-2.43,1.53-4.9,2.94-7.45,4.26l-1,.49-.48.24-.14.07-.25.1-.5.2a9.18,9.18,0,0,1-1.66.49c-.53.13-.88.16-1.33.25a43.6,43.6,0,0,1-4.59.38c-5.79.21-11.26-.06-16.79-.37s-11-.79-16.46-1.37c-2.74-.29-5.47-.6-8.22-1s-5.46-.74-8.41-1.34c-.35-.07-.78-.18-1.16-.27a14.42,14.42,0,0,1-1.39-.42l-1.34-.56-1.23-.66a20.36,20.36,0,0,1-4.06-3.22,28.14,28.14,0,0,1-3.06-3.66c-.44-.64-.87-1.28-1.28-1.94-.2-.33-.4-.66-.59-1s-.37-.65-.61-1.12l.24.41c-5.3-8.39-10.44-16.8-15.4-25.41-2.47-4.31-4.91-8.62-7.2-13.14-.55-1.17-1.13-2.27-1.66-3.49L145,94.22c-.26-.63-.5-1.44-.73-2.15a21.58,21.58,0,0,1-.54-4.39l-.06-2V83.8c.05-5,.31-10,.61-14.94s.67-9.87,1-14.79.85-9.84,1.31-14.75l.71-7.37.36-3.68.19-1.84.1-.92.07-.66A9.32,9.32,0,0,1,148.2,23.93Z"/><path class="cls-3" d="M153.54,21.8s20,13,35,17,42,4,52,2,39.53-7.09,43.26-13.55"/><path class="cls-4" d="M175.54,33.8s18-5,28-6,24.09-1,30.55,0,26.38,8.89,26.38,8.89l-16.62,3.46-16,2-13.33-.31S195.36,40.4,192,39.6,175.54,33.8,175.54,33.8Z"/><path class="cls-1" d="M287.54,44.3s13-13.5,19-14.5,17.43-2.44,23.71,4.78,10.29,14.22,9.29,22.22-1,24-12,33-20,15-29,16a73.32,73.32,0,0,1-16.27,0s3.27-8,8.27-8,14-3,17-5,8-5,13-14a25.18,25.18,0,0,0,3-17s-2-11-6-13-7-3-11-1S288.2,61.09,288.37,63.94s-.53,16.13-.53,16.13l-2.42,14.5-.28,1.2-.12.48-.77,3-1,3.46,1.28-.93"/><path class="cls-2" d="M285.74,42.56a97.68,97.68,0,0,1,7-7.56c1.24-1.2,2.5-2.39,3.86-3.51a42.19,42.19,0,0,1,4.37-3.28l1.27-.75c.45-.24,1-.46,1.45-.69l.37-.17.46-.15.93-.27.47-.13.33-.06.64-.13a52.82,52.82,0,0,1,5.3-.75,39.13,39.13,0,0,1,5.54-.12c.94,0,1.9.15,2.86.25a27.21,27.21,0,0,1,2.9.61,26.43,26.43,0,0,1,2.89,1,21.25,21.25,0,0,1,2.8,1.45,19.8,19.8,0,0,1,2.6,1.89c.4.36.77.75,1.15,1.13l.56.58.43.5a54,54,0,0,1,6.28,8.83,27.92,27.92,0,0,1,3.58,11.1l.08,1.52,0,1.52c-.05,1-.17,2.1-.25,2.79L343,63.06c-.77,6.77-2,14-5.62,20.68a29.51,29.51,0,0,1-7.28,8.79c-2.68,2.16-5.35,4.2-8.17,6.18a85.2,85.2,0,0,1-8.86,5.53,41.85,41.85,0,0,1-10.09,3.9c-.9.19-1.81.38-2.74.49l-1.39.17-1.3.09c-1.74.12-3.47.17-5.21.17a69.38,69.38,0,0,1-10.4-.78h0l-2.69-.44.71-3a22.31,22.31,0,0,1,1.64-4.56,14.88,14.88,0,0,1,3.15-4.38c.39-.34.81-.68,1.26-1a11.62,11.62,0,0,1,1.56-.86,8.31,8.31,0,0,1,1.85-.57c.33-.06.67-.11,1-.15l.12,0h0l.09,0,.18,0c1-.22,2.12-.58,3.27-1a56.69,56.69,0,0,0,6.88-3,19,19,0,0,0,2.76-1.67,15.55,15.55,0,0,1,1.29-1.06c.48-.39.94-.77,1.35-1.15a27.64,27.64,0,0,0,4.29-5c.62-.92,1.23-1.9,1.8-2.91.28-.52.57-1,.83-1.56l.4-.8c.13-.26.2-.47.31-.71a18.68,18.68,0,0,0,1.57-5.67,18.22,18.22,0,0,0,.15-2.85,11,11,0,0,0-.32-2.46l-.2-.94-.21-.85c-.14-.56-.29-1.13-.46-1.67a28,28,0,0,0-1.06-3,10.34,10.34,0,0,0-.78-1.53v0a.35.35,0,0,0,.06.09.8.8,0,0,0,.17.15s.22.19.37.28a2,2,0,0,0,.48.24c-.53-.26-1.06-.52-1.48-.71a12.39,12.39,0,0,0-1.5-.56c-.1,0,0-.1-.34,0-.07,0-.21.09-.32.11l-.13.06-.25.13c-.39.22-.9.52-1.4.83-1,.63-2.08,1.35-3.14,2.09-2.1,1.5-4.25,3-6.22,4.62-1,.79-2,1.59-2.78,2.33-.42.37-.79.72-1.08,1l-.18.18-.1.09s0,0,0-.06.06-.13.08-.2l0-.11a1.24,1.24,0,0,1,.07-.19,3.23,3.23,0,0,0,.16-.63,5.45,5.45,0,0,0,.1-.57,5.79,5.79,0,0,0,0-.72c0-.12,0-.23,0-.35s0,0,0,0v.57c0,.53,0,.85-.06,1.29l-.19,2.22c-.15,1.45-.29,2.86-.46,4.27-.36,2.82-.72,5.6-1.16,8.41l-.07.64c-.5,1.89-1,3.77-1.57,5.65s-1.11,3.76-1.67,5.63l-.87,2.8c-.33,1-.75,2-1.13,2.91-.77,1.84-1.61,3.63-2.51,5.4v0l-3.87-2.72,1.29-.93,2.93,4-1.28.93L280.3,108l.56-5.91v0c.08-1,.18-1.93.29-2.89s.16-1.91.26-2.86.15-1.8.2-2.72l.08-2.9c.08-1.92.14-3.85.25-5.77s.19-3.83.32-5.74l-.07.63-.39-8.31-.18-4.09-.12-2c0-.26-.06-.63-.09-.8l0-.14v-.64c0-.32,0-.65.05-1s.11-.71.14-.84c.09-.37.2-.75.33-1.12a4.24,4.24,0,0,1,.16-.43l.16-.35c.09-.22.23-.5.31-.66.18-.32.38-.69.55-1l.5-.76.46-.64c.6-.79,1.16-1.48,1.71-2.11,1.1-1.28,2.18-2.37,3.28-3.44,2.2-2.12,4.39-4.1,6.73-6,1.16-.95,2.35-1.87,3.64-2.81.66-.46,1.31-.94,2.12-1.43l.66-.39.79-.43a16.83,16.83,0,0,1,1.6-.73,17,17,0,0,1,3.74-1.07,16.69,16.69,0,0,1,4.11-.15,20.71,20.71,0,0,1,6.51,1.73c.86.36,1.59.72,2.31,1.07a15.53,15.53,0,0,1,1.35.81,9.75,9.75,0,0,1,1.21.9c.31.28.62.57.92.87l.44.45.33.4a20,20,0,0,1,2.07,3c.24.45.5.92.72,1.37l.58,1.3a45.27,45.27,0,0,1,1.68,4.9c.22.8.42,1.58.61,2.37l.27,1.19.13.62.06.32c0,.1,0,.27,0,.17a27.46,27.46,0,0,1,.48,5.85,32.21,32.21,0,0,1-.55,5.48,34.14,34.14,0,0,1-3.69,10.14c-.22.38-.44.8-.66,1.15l-.64,1c-.42.68-.9,1.34-1.36,2a42.44,42.44,0,0,1-3.07,3.88,36.76,36.76,0,0,1-7.69,6.64c-.7.46-1.4.86-2.07,1.25s-1,.59-2.22,1.22a31.33,31.33,0,0,1-4.84,1.8,52.78,52.78,0,0,1-9.17,1.73,30.48,30.48,0,0,1-5,.1l-.6,0,0-.06c0-.08-.1-.06-.18-.11s-.22,0-.35,0l-.49.14c-1.52.59-3.48,2.61-4.9,4.51l-2-3.43h0a76.6,76.6,0,0,0,9.59.06q2.42-.13,4.8-.42l1.19-.16,1.08-.19c.73-.13,1.45-.32,2.16-.52a36.39,36.39,0,0,0,8.35-3.77,76.33,76.33,0,0,0,7.92-5.39c2.56-2,5.15-4.06,7.6-6.16a21.8,21.8,0,0,0,5.22-6.71c2.69-5.21,3.77-11.4,4.36-17.85l.47-5c.1-1,.15-1.52.19-2.2V54l-.06-1a19.57,19.57,0,0,0-2.62-7.78,46.83,46.83,0,0,0-5.37-7.42l-.39-.45-.32-.32-.61-.63a12,12,0,0,0-1.44-1.07,14.82,14.82,0,0,0-1.63-.88c-.61-.21-1.19-.47-1.85-.63a26.68,26.68,0,0,0-8.57-.8c-1.52.08-3.07.21-4.65.4l-.6.08-.28,0-.14,0-.27,0-.15,0-.2.08c-.27.11-.54.19-.83.33l-.92.46a58.9,58.9,0,0,0-7.73,5.27c-2.55,2-5.11,4.11-7.58,6.21Z"/><path class="cls-5" d="M120.54,55.8s-10-4-23,2-50,20-55,53-3,42-3,42,1,7,5,7,7-4,7-4,11-7,18-8,21-4,27-1,7.81,3.08,7.81,3.08-1.81-5.08,3.19-13.08,20-20,20-20,13.06-8.61,19.53-8.3,9.47.3,9.47.3l-2.46-4.68-6.1-12-.91-2.9v-14"/><path class="cls-2" d="M119.61,58.12l-.85-.22c-.32-.08-.64-.15-1-.21a19.07,19.07,0,0,0-2-.27,26,26,0,0,0-4.14-.12,30.56,30.56,0,0,0-8.15,1.52,36.08,36.08,0,0,0-3.89,1.53c-.61.26-1.33.62-2,.95l-2.07,1c-2.74,1.29-5.46,2.54-8.12,3.89A131.15,131.15,0,0,0,72,75.05a75.76,75.76,0,0,0-13.26,11.2,52.19,52.19,0,0,0-5.35,6.66,46.11,46.11,0,0,0-4.12,7.39,47.53,47.53,0,0,0-2.67,8c-.17.69-.28,1.38-.42,2.07l-.2,1-.17,1.12L45.14,117c-.86,6-1.68,11.93-2.24,17.89-.27,3-.51,6-.61,8.92-.06,1.48-.07,2.94-.08,4.4,0,.72,0,1.44,0,2.14,0,.36,0,.69.07,1l.08.81,0,.22a14.07,14.07,0,0,0,.35,1.71,12.27,12.27,0,0,0,.59,1.59,4.62,4.62,0,0,0,.68,1.07.9.9,0,0,0,.4.29s0,0,.11,0h.3a3.11,3.11,0,0,0,.65-.1,5,5,0,0,0,1.38-.54,7.75,7.75,0,0,0,1.41-.95c.23-.19.45-.38.66-.59s.45-.46.56-.58h0l.66-.61A83.45,83.45,0,0,1,63,147.11a35.85,35.85,0,0,1,3.54-1.19,26.47,26.47,0,0,1,3.69-.74l6.87-1.09a69.85,69.85,0,0,1,14.38-1,18.27,18.27,0,0,1,1.91.21,14.85,14.85,0,0,1,2,.41,11.44,11.44,0,0,1,2,.71c.39.16.57.27.84.39l.76.37c1,.48,2,.94,3,1.34.5.2,1,.39,1.48.55l.7.21.3.07.11,0s.12,0-.1,0L102,150.72a2.53,2.53,0,0,1-.1-.33l-.07-.24c0-.15-.07-.31-.09-.45s-.09-.56-.12-.84a11,11,0,0,1-.08-1.61,18,18,0,0,1,.3-3.06,23.2,23.2,0,0,1,1.87-5.6,32.79,32.79,0,0,1,3-4.93c1.14-1.49,2.31-2.92,3.54-4.25,2.45-2.68,5-5.17,7.66-7.58s5.32-4.71,8.12-7l.09-.08.1-.06c2.27-1.47,4.51-2.78,6.87-4a59.91,59.91,0,0,1,7.35-3.35,25.54,25.54,0,0,1,4.16-1.13c.39,0,.74-.13,1.15-.16l1.25,0c.74,0,1.3,0,2,0l7.63.25L154.33,110c-1.46-2.76-2.92-5.53-4.32-8.32l-4.25-8.34-.1-.19-.06-.2-.92-2.9-.11-.37V75.23h5v14l-.12-.75.92,2.9-.16-.38,4.25,8.32c1.4,2.78,2.84,5.54,4.29,8.29l2,3.79-4.22-.13-7.82-.25c-.63,0-1.36-.06-1.9,0l-.69,0a7.33,7.33,0,0,0-.76.11,19.34,19.34,0,0,0-3.29.9,54.72,54.72,0,0,0-6.7,3.06c-2.2,1.16-4.4,2.46-6.46,3.79l.18-.14c-2.66,2.16-5.31,4.45-7.87,6.78s-5,4.74-7.33,7.25c-1.16,1.25-2.22,2.54-3.21,3.84a27.58,27.58,0,0,0-2.46,4.11,17.8,17.8,0,0,0-1.47,4.38,12.67,12.67,0,0,0-.22,2.17,8.61,8.61,0,0,0,0,1c0,.16,0,.32.07.46s0,.14,0,.2a.45.45,0,0,1,0,.08s0,0,0,0l-2.47,3.34c-.36,0-.37,0-.53-.07l-.31-.06-.54-.13c-.34-.09-.66-.19-1-.29-.62-.21-1.2-.43-1.78-.66-1.14-.46-2.24-.95-3.32-1.47l-.8-.39c-.26-.12-.58-.29-.74-.34a7.49,7.49,0,0,0-1.24-.43,11.12,11.12,0,0,0-1.42-.29,14.91,14.91,0,0,0-1.53-.17,65.07,65.07,0,0,0-13.27,1l-6.86,1.08-.87.13c-.3,0-.5.09-.76.14a14.85,14.85,0,0,0-1.48.34c-1,.28-2,.65-3,1a78.91,78.91,0,0,0-11.9,6.15l.66-.61h0a12,12,0,0,1-.89,1.07c-.29.33-.6.64-.92.94A14.23,14.23,0,0,1,49.58,161a10.42,10.42,0,0,1-2.64,1.19,8.25,8.25,0,0,1-1.51.31l-.8.06a8.57,8.57,0,0,1-1-.06,6.37,6.37,0,0,1-3.45-1.69,10,10,0,0,1-1.86-2.49,16,16,0,0,1-1.05-2.49,16.76,16.76,0,0,1-.65-2.58l0,.23c-.14-.67-.18-1-.24-1.45s-.1-.84-.13-1.24c-.08-.81-.12-1.61-.17-2.41-.07-1.58-.08-3.15-.07-4.71,0-3.12.2-6.2.39-9.28q.63-9.23,1.83-18.33l.62-4.55.16-1.13.21-1.2c.15-.8.27-1.61.45-2.41a51.57,51.57,0,0,1,3-9.31,57.62,57.62,0,0,1,10.72-16.1c8.8-9.4,19.78-16,31-21.22,2.8-1.31,5.63-2.55,8.43-3.73l2.09-.88c.68-.3,1.34-.59,2.14-.9A39.43,39.43,0,0,1,101.73,53a36.36,36.36,0,0,1,9.8-1.27,31.57,31.57,0,0,1,4.94.42c.82.13,1.64.31,2.46.52.4.1.81.23,1.22.35s.79.26,1.32.48Z"/><path class="cls-5" d="M147.76,47.85s-21.22,1.95-28.22,4.95,26.06,10.86,26.53,22.43S147.76,47.85,147.76,47.85Z"/><path class="cls-2" d="M146.05,49.67a2,2,0,0,0,1.34.7,2.22,2.22,0,0,0,.36,0h-.13l-.37.06-.75.1-1.51.23-3,.43c-2,.3-4,.62-6,1a114.14,114.14,0,0,0-11.67,2.39c-.47.12-.93.25-1.36.4s-.92.27-1.29.43l-.59.23-.29.11s0,0,0,0a1.78,1.78,0,0,0,.71-.81,3.42,3.42,0,0,0,.23-.64,2.77,2.77,0,0,0,0-.69,1.65,1.65,0,0,0,0-.31l0-.22c0-.13-.12-.28-.13-.32-.18-.33-.18-.27-.15-.25l.29.22a11.73,11.73,0,0,0,1,.65c.76.45,1.62.9,2.5,1.34,3.53,1.81,7.33,3.55,11,5.65a55.43,55.43,0,0,1,5.48,3.5,24.15,24.15,0,0,1,5.12,4.84,12.88,12.88,0,0,1,1.94,3.58,9.87,9.87,0,0,1,.48,2.21l0,.58,0,.37,0,.7,0,.48s0,0-.1-.34l-.07-.2a3,3,0,0,0-.21-.4,3.2,3.2,0,0,0-1.12-1.08c-1-.83-3.39-.16-3.39.15a3.25,3.25,0,0,0-.87.91,2.91,2.91,0,0,0-.2.39c0,.09-.09.24-.1.27-.09.31,0,.16,0,.12.06-.33.12-.85.16-1.32l.25-3c.3-4,.53-8.1.78-12.17l.4-6.1.19-3.05.11-1.53.06-.76,0-.38,0-.19v0a1.45,1.45,0,1,1,0,.23A2.25,2.25,0,0,0,146.05,49.67ZM149.47,46a2.83,2.83,0,0,1,.78,1.72V51l0,3.07,0,6.14c-.07,4.09-.18,8.18-.34,12.3l-.15,3.13c0,.55-.07,1-.16,1.74a4.19,4.19,0,0,1-.18.86c0,.06-.08.25-.13.36A3.22,3.22,0,0,1,149,79a3,3,0,0,1-.89,1c0,.32-2.43,1-3.44.16A3.39,3.39,0,0,1,143.54,79c-.08-.14-.16-.29-.23-.44l-.09-.24a3.91,3.91,0,0,1-.17-.72c-.07-.48-.09-.73-.11-1l-.06-.83,0-.4,0-.18a2.89,2.89,0,0,0-.19-.77,6.43,6.43,0,0,0-1-1.74,19.68,19.68,0,0,0-3.81-3.49,52,52,0,0,0-4.86-3c-3.43-1.93-7-3.66-10.77-5.58-.94-.49-1.88-1-2.86-1.61a17.76,17.76,0,0,1-1.55-1,10.44,10.44,0,0,1-.88-.76,5.54,5.54,0,0,1-1.08-1.45,4.12,4.12,0,0,1-.28-.68c0-.14-.08-.25-.11-.4a4.43,4.43,0,0,1-.06-.51,3.87,3.87,0,0,1,.42-2.06,4.46,4.46,0,0,1,1.82-1.83,7,7,0,0,1,.68-.33l.42-.16.84-.31c.58-.23,1.09-.33,1.63-.5s1.08-.29,1.6-.4a122.58,122.58,0,0,1,12.41-2.07c2.05-.23,4.11-.43,6.16-.61l3.08-.26,1.55-.1.77,0,.39,0h.16a2.14,2.14,0,0,1,.44,0A3.09,3.09,0,0,1,149.47,46Z"/><path class="cls-5" d="M46.7,159.8s11.84,32,23.84,40,18,11,18,11,1,0,2-2,4-8,8-10,8-4,10-4-2-9-2-15c0,0-4-14-3-22l1-8-8-3-6.49-1.28H82.21l-16.67,3.3-11.47,5.46Z"/><path class="cls-2" d="M49.1,160.51a2.22,2.22,0,0,0,.09-1,2.07,2.07,0,0,0-.11-.46v0l0,.12.1.24.18.48.38,1,.79,1.95c.53,1.3,1.07,2.59,1.63,3.88,1.11,2.58,2.27,5.13,3.5,7.65a118.16,118.16,0,0,0,8.18,14.52,48.42,48.42,0,0,0,5,6.3,21.57,21.57,0,0,0,2.87,2.45c1.12.76,2.33,1.55,3.51,2.31,2.36,1.54,4.74,3,7.14,4.5s4.86,2.91,7.22,4.13l-1.12-.26a1.82,1.82,0,0,0-.37,0l-.13,0-.14,0a.42.42,0,0,0-.12.06l0-.05a2.92,2.92,0,0,0,.38-.57l.58-1.12.66-1.23a33.58,33.58,0,0,1,3.14-4.78,15.5,15.5,0,0,1,4.76-4.12c1.61-.81,3.18-1.59,4.85-2.36.84-.38,1.69-.75,2.61-1.09a12.59,12.59,0,0,1,3.2-.82l.48,0a1.83,1.83,0,0,0-.61.11,2.07,2.07,0,0,0-.69.41,1.68,1.68,0,0,0-.39.48,1.21,1.21,0,0,0-.15.33,1.16,1.16,0,0,0-.05.2,5.55,5.55,0,0,0-.07-.68c-.11-.71-.31-1.55-.51-2.38-.41-1.67-.87-3.41-1.25-5.22a28.68,28.68,0,0,1-.73-5.75l.1.69c-.71-2.55-1.28-5-1.8-7.58s-.94-5.11-1.2-7.74c-.14-1.32-.22-2.65-.25-4,0-.69,0-1.38,0-2.07s.1-1.48.19-2.07l.94-7.53h0l1.6,2.65c-.77,0-1.51,0-2.27,0s-1.48-.09-2.22-.15c-1.47-.15-2.93-.31-4.36-.55l.78.23c-1.13,0-2.25,0-3.37,0s-2.23-.08-3.34-.17l1.17.11c-1.31.18-2.61.3-3.92.43-.65.07-1.31.1-2,.15s-1.31.11-2,.13l1.31-.13c-2.75.69-5.52,1.3-8.31,1.79-1.39.27-2.79.48-4.19.7s-2.82.39-4.22.58l1.53-.5-3,1.11-3,1c-1,.32-2,.66-3.06,1s-2.06.6-3.1.87l.82-.5a32,32,0,0,1-3.43,1.07l-2.08.57C50.71,160,50,160.25,49.1,160.51Zm-4.8-1.42c.38-.66.84-1.34,1.32-2.06s1-1.44,1.6-2.19a47.08,47.08,0,0,1,3.94-4.45l.82-.49c.87-.65,1.75-1.26,2.63-1.87s1.78-1.18,2.67-1.77L60,144.57,62.74,143l.34-.2,1.19-.31c1.38-.35,2.74-.75,4.12-1.07s2.76-.67,4.15-.94c2.76-.61,5.56-1.11,8.36-1.52l.94-.14h.37c.65,0,1.31.08,2,.12s1.31.09,2,.15c1.31.14,2.61.25,3.92.44l1.16.11c1.06.34,2.11.73,3.16,1.11s2.09.8,3.12,1.25l.78.22c1.24.77,2.44,1.61,3.64,2.46.6.44,1.19.88,1.78,1.35s1.17.94,1.73,1.47l2,1.86-.41.79h0l-.94,7.53a29.91,29.91,0,0,0,0,7c.25,2.41.65,4.84,1.13,7.26s1.06,4.86,1.71,7.19l.09.34v.35a24.21,24.21,0,0,0,.62,4.72c.34,1.65.78,3.32,1.22,5.06.21.89.43,1.76.59,2.8a7.91,7.91,0,0,1,.1,2,3.47,3.47,0,0,1-.16.84,5.17,5.17,0,0,1-.28.64,3.37,3.37,0,0,1-.61.74,3.17,3.17,0,0,1-1,.57,3.4,3.4,0,0,1-.94.18h-.18a8.58,8.58,0,0,0-1.89.53c-.74.27-1.51.6-2.27.95-1.53.7-3.12,1.49-4.66,2.27a10.86,10.86,0,0,0-3.14,2.8,29.32,29.32,0,0,0-2.66,4.06l-.59,1.1-.63,1.23a7.22,7.22,0,0,1-1.13,1.59,5.22,5.22,0,0,1-1,.81,4.15,4.15,0,0,1-.7.37,3.33,3.33,0,0,1-.45.16l-.29.07a2.84,2.84,0,0,1-.54.05l-.58,0-.54-.28c-2.68-1.4-5.1-2.84-7.57-4.33s-4.88-3-7.28-4.58c-1.21-.79-2.37-1.55-3.6-2.39a25.18,25.18,0,0,1-3.61-3.07,51.67,51.67,0,0,1-5.6-7,122.73,122.73,0,0,1-8.55-15.15c-1.26-2.59-2.45-5.21-3.59-7.85-.57-1.32-1.13-2.64-1.67-4l-.81-2-.39-1-.2-.51-.09-.26-.05-.13,0,0a3.61,3.61,0,0,1-.14-.53A3,3,0,0,1,44.3,159.09Z"/><path class="cls-5" d="M89.82,209.94s6.72,4.86,13.72,5.86a113.09,113.09,0,0,0,14,1s5-1,5-3-2-5-2-5-5-2-6-4-4-10-6-10-11.38,4.87-11.38,4.87l-6.62,9.13Z"/><path class="cls-2" d="M92.28,209.46a2.3,2.3,0,0,0-.43-1,2,2,0,0,0-.5-.49l.08,0,.17.12.35.23.71.45c.48.3,1,.59,1.47.88,1,.56,2,1.07,3,1.55a26.42,26.42,0,0,0,6.29,2c2.23.36,4.65.58,7,.76s4.76.27,7.08.29l-.49,0a12.93,12.93,0,0,0,2.26-.71,3.66,3.66,0,0,0,.81-.43c.18-.1.15-.23,0,.22a.67.67,0,0,0,0,.37.41.41,0,0,1,0-.11,2.23,2.23,0,0,0-.07-.36,7,7,0,0,0-.34-1,16.31,16.31,0,0,0-1.16-2.14h0l1.15.93a28.62,28.62,0,0,1-4.1-1.66,13.07,13.07,0,0,1-2.13-1.35c-.2-.16-.38-.31-.58-.5s-.4-.41-.6-.67l-.31-.45c-.11-.16-.2-.32-.24-.39l-.29-.51c-.69-1.24-1.28-2.35-1.92-3.45a30.23,30.23,0,0,0-1.93-3,3.81,3.81,0,0,0-.81-.86s-.1.07.45.39a2.43,2.43,0,0,0,.62.24,2.1,2.1,0,0,0,.5.09h.25l.07,0h.2c.07,0,.17,0,.1,0l-.16.09-.31.14-.7.35c-.5.26-1,.55-1.57.85-2.15,1.2-4.4,2.57-6.52,3.92h0l1.87-1.61L96.67,207l-2.42,2.12L93,210.22l-.15.13c0,.05,0,0,0-.07a.66.66,0,0,0-.05-.29A1,1,0,0,0,92.28,209.46Zm-4.91.95a7,7,0,0,1,.67-2.82l.19-.4.08-.18.64-1.49,1.28-3,2.59-6,1.87-1.61h0c2.58-1,5.07-2,7.74-2.93.68-.23,1.36-.45,2.09-.67.37-.11.71-.22,1.15-.32l.64-.16.79-.15a5.79,5.79,0,0,1,.58-.08c.24,0,.47,0,.7,0h.19l.37,0q.39,0,.75.12a5.66,5.66,0,0,1,1.08.41,6.28,6.28,0,0,1,2,1.62,12.75,12.75,0,0,1,1.49,2.37,35.57,35.57,0,0,1,1.68,4c.47,1.3.9,2.61,1.29,3.78l.14.39c0,.08,0,.06,0,0l0,0s0,.06,0,.09l.13.19a6.94,6.94,0,0,0,1.06,1,23.33,23.33,0,0,0,3,1.89l.86.47.29.46h0a19.93,19.93,0,0,1,1.58,3,11.07,11.07,0,0,1,.6,1.74,7.69,7.69,0,0,1,.2,1.06l0,.62a5.13,5.13,0,0,1-.16,1.09,4.67,4.67,0,0,1-1.85,2.4,9.16,9.16,0,0,1-1.73.95,17.66,17.66,0,0,1-3.27,1l-.23.05h-.26c-2.53,0-5-.13-7.44-.31s-4.9-.4-7.46-.81a31.09,31.09,0,0,1-7.53-2.39c-1.17-.54-2.32-1.12-3.43-1.75-.56-.32-1.12-.64-1.66-1l-.82-.52-.41-.28-.21-.14-.1-.07a3.23,3.23,0,0,1-.6-.56A2.8,2.8,0,0,1,87.37,210.41Z"/><path class="cls-3" d="M162.77,118.71s-37.23,6.09-46.23,21.09-14,22.54-12,31.27"/><path class="cls-1" d="M164.11,175.69s9.43,14.11,13.43,15.11,48,5,48,5l33-2s9-1,11-3,7.66-8.7,7.66-8.7l-30.78,4.37-21.31-.22-23-1.59-20.65-4Z"/><path class="cls-2" d="M166.14,177.16a2.24,2.24,0,0,0,.46-.86,2.32,2.32,0,0,0,0-1.14,2.08,2.08,0,0,0-.17-.48c-.05-.11-.18-.31-.14-.25l0,0,.2.18.39.36.78.74,1.56,1.47,3.09,2.88c1,.94,2.06,1.85,3.08,2.71a34.19,34.19,0,0,0,3,2.23l.61.32a.35.35,0,0,0,.22.07l.15,0s.08,0,0,0l-.14-.12a.85.85,0,0,0-.34-.14,5.47,5.47,0,0,1,.6,0l4,.05c2.82,0,5.67.06,8.52.12s5.71.16,8.57.23l8.56.36q8.56.45,17.1,1.11L225,187c4.64-.32,9.27-.69,13.92-.81s9.32-.14,14,0l3.51.17.88,0,.44,0s.24,0,.07,0,0,0,0,0h.09c.5,0,1,0,1.56,0l3.13,0,2.71-.13h.45c.18,0,.13,0,.17.11v0l-.06.06a1,1,0,0,0-.13.16,1,1,0,0,0-.11.17c0,.05,0,0,0,0l.08,0a7.36,7.36,0,0,0,.63-.41l2.83-2c1.94-1.34,3.92-2.72,6.05-4h0l2.26,4.08-30.77,4.37-.19,0h-.19l-11.13-.12c-3.7-.06-7.42,0-11.12-.16L202,187.15h-.16l-.15,0-20.65-4-.1,0-.1,0a54.47,54.47,0,0,1-7.19-2.51C171.28,179.5,168.81,178.29,166.14,177.16Zm-4-2.94c3.12.51,6.43.94,9.89,1.57s6.92,1.49,10.18,2.42l-.2-.05,20.65,4.05-.31,0,22,1.52c3.68.14,7.37.11,11.05.17l11,.11-.38,0,30.78-4.37,5.95-.84-3.69,4.93h0A64.48,64.48,0,0,1,276,190.4c-.59,1.07-1.16,2.15-1.87,3.24-.17.27-.36.56-.57.86l-.08.12a2,2,0,0,1-.13.15l-.45.45-.47.43-.24.2L272,196a11,11,0,0,1-1.38.92l-.62.36-.55.3a33.27,33.27,0,0,1-4,1.75c-1.28.47-2.53.87-3.78,1.21-.63.17-1.25.34-1.92.5l-2,.36-3.49.59c-4.66.74-9.35,1.31-14,1.72s-9.4.65-14.11.9l-.75,0-.58-.06q-8.56-.9-17.09-2.1c-2.84-.41-5.68-.85-8.52-1.3s-5.68-.94-8.52-1.51l-4.26-.83-4.28-.93c-1.45-.3-2.84-.66-4.47-1.08-.51-.14-1-.26-1.52-.42s-.89-.35-1.33-.56l-.63-.32a3.94,3.94,0,0,1-.43-.29l-.74-.57a6,6,0,0,1-.66-.55l-1-1.05a32.41,32.41,0,0,1-3-4c-.87-1.3-1.63-2.61-2.36-3.93s-1.41-2.65-2.05-4l-.93-2-.45-1-.22-.52-.1-.26,0-.07c0,.05-.11-.17-.18-.31a4,4,0,0,1-.2-.53,2.79,2.79,0,0,1,.35-2.22Z"/><polygon class="cls-5" points="105.83 139.97 105.54 155.8 116.54 139.8 135.54 125.8 160.94 118.71 156.54 111.95 153.75 108.75 145.63 108.56 129.48 115.58 108.54 134.8 105.83 139.97"/><path class="cls-2" d="M108.25,140.59,108,155.84l-4.56-1.46,11-16,.24-.34.34-.25,19-14,.37-.28.44-.12,25.4-7.09-1.42,3.77-4.4-6.75.21.27-2.79-3.2,1.82.86-8.12-.19,1.06-.21-16.15,7,.69-.45c-3.3,3.42-6.78,6.63-10.3,9.8s-7.05,6.33-10.64,9.42l.52-.68Q109.54,138.28,108.25,140.59Zm-4.84-1.25c1-1.9,1.92-3.81,2.92-5.7l.18-.35.34-.33q5.09-5,10.3-9.8c3.46-3.23,7-6.43,10.64-9.42l.4-.32.29-.13,16.16-7,.5-.22h.55l8.12.19,1.11,0,.72.83,2.79,3.2.11.13.1.15,4.4,6.76,1.86,2.85-3.28.92-25.41,7.09.81-.4-19,14,.58-.59-11,16-4.74,6.9.18-8.37Z"/><path class="cls-1" d="M147.88,92.34s84.77,25.72,137.46,0"/><path class="cls-2" d="M148.61,90c5.63,1,11.4,2,17.11,2.79s11.44,1.57,17.16,2.21c11.45,1.23,22.89,2.09,34.26,2.22a211.59,211.59,0,0,0,33.7-2c1.39-.16,2.75-.45,4.12-.67s2.73-.47,4.07-.79,2.71-.57,4-.89,2.67-.64,4-.88,2.69-.56,4.07-.75l4.16-.59c1.39-.19,2.87-.23,4.31-.39a30.54,30.54,0,0,1,4.61-.06l2.19,4.5a29.34,29.34,0,0,1-7.21,6.37l-2,1.25c-.7.36-1.39.71-2.09,1a39.26,39.26,0,0,1-4.3,1.82q-2.2.75-4.44,1.35c-1.5.38-3,.66-4.52,1s-3,.58-4.52.83-3,.54-4.54.71a180.62,180.62,0,0,1-36.19,1,244.43,244.43,0,0,1-35.37-5.1,223.8,223.8,0,0,1-34.09-10.14Z"/></g></g></svg>